<svg width="902" height="771" viewBox="0 0 902 771" fill="none" xmlns="http://www.w3.org/2000/svg">
<path fill-rule="evenodd" clip-rule="evenodd" d="M845.9 213.959C843.155 213.729 840.41 213.501 837.665 213.274C834.92 213.046 832.175 212.819 829.43 212.589C828.882 212.545 828.34 212.471 827.952 212.418L827.81 212.398C827.721 212.386 827.643 212.376 827.58 212.369C826.946 211.556 826.342 210.74 825.746 209.935C823.431 206.805 821.238 203.841 817.85 201.909C817.235 201.559 816.735 201.009 816.232 200.456C815.787 199.967 815.341 199.476 814.81 199.119C812.37 197.469 809.9 195.839 807.28 194.499C798.14 189.799 788.39 187.359 778.11 187.089C775.81 186.639 773.51 186.609 771.21 187.069C765.72 187.009 760.56 188.479 755.56 190.559C748.09 193.669 741.84 198.539 736.31 204.369C731.34 209.599 727.14 215.419 723.31 221.519C717.51 230.779 712.68 240.549 708.11 250.449C706.863 253.143 705.648 255.852 704.434 258.561L704.431 258.569L704.429 258.573C703.337 261.008 702.246 263.443 701.13 265.869C698.61 271.359 695.71 276.639 692.09 281.489C689.93 284.379 687.53 287.039 684.76 289.359C679.24 293.959 672.93 296.389 665.71 296.529C659.6 296.639 653.73 295.429 647.94 293.629C638.61 290.729 629.69 286.809 620.8 282.819C605.24 275.829 589.91 268.329 574.9 260.229C562.87 253.739 550.24 248.819 537.19 244.949C523.9 241.009 510.36 238.159 496.63 236.159C477.15 233.329 457.58 232.169 437.92 232.689C425.74 233.009 413.56 233.729 401.47 235.389C399.922 235.603 398.374 235.813 396.825 236.022L396.811 236.024C390.107 236.933 383.399 237.843 376.75 239.069C361.93 241.799 347.79 246.789 334.03 252.889C314.96 261.339 297.1 271.899 279.93 283.679C257.88 298.809 237.29 315.769 217.58 333.809C199.58 350.279 182.45 367.619 165.99 385.629C164.54 387.209 163.08 388.769 161.43 390.179C160.422 391.043 159.626 392.15 158.828 393.259C158.351 393.922 157.873 394.585 157.35 395.199C156.861 395.772 156.282 396.262 155.703 396.753C154.634 397.657 153.566 398.562 153.06 399.989C152.923 400.381 152.59 400.716 152.278 401.029C152.224 401.083 152.171 401.136 152.12 401.189C149.085 404.266 146.382 407.625 143.681 410.982C141.914 413.178 140.148 415.373 138.29 417.489C137.664 418.203 137.116 418.988 136.569 419.772C136.312 420.14 136.055 420.508 135.79 420.869C135.66 420.999 135.532 421.129 135.405 421.259C135.277 421.389 135.15 421.519 135.02 421.649C134.793 421.806 134.569 421.961 134.345 422.117L134.336 422.123C134.108 422.281 133.88 422.439 133.65 422.599C133.496 420.836 133.328 419.073 133.159 417.31C132.778 413.332 132.398 409.353 132.19 405.369C131.47 391.789 131.45 378.199 132.19 364.619C132.73 354.639 133.68 344.689 134.95 334.769C137.65 313.749 142.08 293.109 148.28 272.859C165.21 217.569 193.22 168.569 232.07 125.759C232.483 125.302 232.915 124.86 233.347 124.417C234.607 123.125 235.871 121.83 236.69 120.169C236.85 119.839 237.15 119.539 237.46 119.319C240.039 117.525 242.179 115.267 244.316 113.012C245.252 112.024 246.188 111.036 247.16 110.089C265.8 91.9387 283.31 78.1787 299.91 66.8387C302.17 65.2989 304.438 63.7768 306.707 62.2547C307.842 61.4934 308.976 60.7322 310.11 59.9687L310.71 59.4887C311.097 59.2717 311.486 59.0596 311.874 58.8477L311.875 58.8475C312.721 58.386 313.564 57.9259 314.38 57.4187C349.91 35.4487 388.03 19.7087 428.68 10.1487C442.54 6.88874 456.56 4.46874 470.71 2.79874C489.22 0.618737 507.78 -0.391251 526.4 0.138749C543.98 0.638749 561.47 2.23874 578.84 5.06874C628.71 13.1787 675.14 30.4987 718.16 56.9187C742.06 71.5987 764.1 88.7087 784.26 108.239C801.45 124.889 817.04 142.919 830.87 162.449C841.7 177.749 851.47 193.699 859.92 210.439C860.079 210.754 860.253 211.063 860.426 211.372C860.928 212.267 861.423 213.149 861.52 214.109C861.052 214.875 860.475 214.815 859.962 214.762C859.872 214.752 859.785 214.743 859.7 214.739C858.356 214.654 857.015 214.551 855.673 214.449L855.67 214.449C854.327 214.346 852.985 214.244 851.64 214.159C850.633 214.094 849.626 214.081 848.619 214.068C848.216 214.063 847.813 214.057 847.41 214.049C847.155 214.039 846.9 214.026 846.645 214.014C846.39 214.001 846.135 213.989 845.88 213.979L845.9 213.959ZM848.38 224.029C848.637 223.889 848.898 223.756 849.159 223.622C849.681 223.356 850.203 223.089 850.69 222.769C854.03 220.579 857.52 218.699 861.31 217.409C861.664 217.288 862.035 217.213 862.371 217.145L862.373 217.145C862.483 217.123 862.589 217.101 862.69 217.079C863.736 217.734 864.138 218.695 864.528 219.626C864.626 219.86 864.723 220.093 864.83 220.319C874.09 239.819 881.61 259.969 887.47 280.749C891.69 295.699 894.97 310.849 897.3 326.199C898.88 336.599 900.23 347.029 900.72 357.549C900.808 359.452 900.903 361.355 900.998 363.258C901.343 370.196 901.689 377.134 901.72 384.079C901.79 399.219 900.94 414.329 899.22 429.389C895.83 458.949 889.21 487.749 879.02 515.679C853 586.979 809.74 645.679 749.48 691.759C709.32 722.479 664.64 744.209 615.78 757.249C601.28 761.119 586.57 764.009 571.71 766.189C547.76 769.709 523.69 770.659 499.55 769.729C486.99 769.249 474.48 767.979 462.02 766.209C421.31 760.419 382.53 748.439 345.74 730.079C339.969 727.194 334.319 724.063 328.67 720.932C326.017 719.463 323.365 717.993 320.7 716.549C319.915 716.121 319.124 715.712 318.331 715.302C318.104 715.184 317.877 715.067 317.65 714.949C317.545 714.864 317.44 714.781 317.335 714.699C317.23 714.616 317.125 714.534 317.02 714.449C314.976 713.108 312.923 711.781 310.87 710.454C306.356 707.535 301.843 704.618 297.43 701.559C263.62 678.149 234.36 649.979 209.5 617.229C209.043 616.627 208.574 616.029 208.062 615.377L208.055 615.369C207.796 615.039 207.525 614.695 207.24 614.329C206.151 614.509 205.06 614.682 203.968 614.855L203.966 614.855C201.537 615.241 199.104 615.627 196.69 616.089C165.18 622.089 134.18 630.059 103.87 640.589C79.37 649.099 55.56 659.169 33 672.059C22.76 677.909 12.87 684.309 3.51 691.499C3.31862 691.646 3.13319 691.808 2.94517 691.972C2.19007 692.631 1.39311 693.327 0 693.279C0.023927 693.081 0.0291604 692.889 0.0340707 692.71C0.0435259 692.364 0.0517834 692.063 0.190002 691.839C1.49 689.819 2.89001 687.859 4.49001 686.059C5.09703 685.38 5.61884 684.633 6.14165 683.885L6.14233 683.884C6.42028 683.486 6.69852 683.088 6.99001 682.699C7.09037 682.564 7.18724 682.423 7.28449 682.282L7.28478 682.281C7.55567 681.887 7.82954 681.488 8.19 681.209C10.45 679.445 12.4174 677.377 14.3856 675.307L14.3863 675.307C15.9449 673.668 17.5042 672.028 19.21 670.539C19.68 670.129 20.09 669.619 20.45 669.099C21.33 667.819 22.49 666.939 23.8 666.089C25.0847 665.26 26.258 664.262 27.4339 663.262C28.0886 662.706 28.7441 662.148 29.42 661.619C32.5237 659.195 35.6316 656.783 38.741 654.371C40.3904 653.091 42.0402 651.811 43.69 650.529C43.7273 650.497 43.7646 650.465 43.802 650.433L43.9001 650.348C44.031 650.234 44.1634 650.119 44.3 650.009C45.8373 649.42 47.0792 648.395 48.3226 647.37L48.323 647.37C49.0207 646.794 49.7189 646.218 50.47 645.719C54.04 643.339 57.64 641.009 61.28 638.729C100.2 614.309 142.01 596.519 186.19 584.149C204.96 578.899 223.96 574.729 243.24 571.889C247.239 571.297 251.251 570.796 255.265 570.294C257.353 570.034 259.442 569.773 261.53 569.499C262.219 569.41 262.903 569.27 263.589 569.13L263.591 569.13C263.91 569.064 264.23 568.999 264.55 568.939L264.774 568.926L264.901 568.918C265.293 568.895 265.685 568.872 266.07 568.849C266.474 568.839 266.879 568.836 267.283 568.832H267.286C268.16 568.825 269.035 568.817 269.91 568.749C287.7 567.299 305.53 567.159 323.36 567.669C334.64 567.989 345.92 568.459 357.19 569.109C366.361 569.642 375.522 570.304 384.683 570.966L384.691 570.967C388.574 571.247 392.457 571.528 396.34 571.799C404.78 572.389 413.23 572.989 421.66 573.629C427.605 574.079 433.55 574.539 439.495 574.999C445.44 575.459 451.385 575.919 457.33 576.369C461.68 576.699 466.03 577.019 470.38 577.259C482.03 577.909 493.69 578.549 505.34 579.129C524.18 580.079 543.02 580.599 561.88 580.259C576.5 579.989 591.11 579.379 605.67 577.989C622.91 576.349 640.02 573.819 656.86 569.669C674.73 565.269 691.98 559.219 708.18 550.399C721.32 543.249 733.29 534.449 744.36 524.449C745.227 523.666 746.107 522.898 746.987 522.129C749.347 520.068 751.708 518.007 753.82 515.669C755.23 514.103 756.687 512.578 758.144 511.052C759.787 509.331 761.431 507.609 763.01 505.829C765.9 502.569 768.69 499.199 771.36 495.759C774.11 492.219 776.76 488.589 779.31 484.889C781.78 481.299 784.14 477.629 786.39 473.889C788.7 470.049 790.89 466.129 792.99 462.159C795.03 458.309 796.96 454.399 798.78 450.439C800.65 446.369 802.42 442.239 804.08 438.069C805.69 434.019 807.18 429.919 808.59 425.799C814.4 408.779 818.55 391.349 821.4 373.599C823.68 359.409 825.17 345.139 826.06 330.799C827.15 313.249 827.42 295.689 827.48 278.109C827.5 271.559 827.83 265.029 829.02 258.579C830.62 249.909 833.61 241.799 838.71 234.519C840.77 231.579 843.23 229.039 845.81 226.579C846.223 226.186 846.575 225.73 846.926 225.274C847.101 225.047 847.277 224.819 847.46 224.599C847.62 224.499 847.78 224.396 847.94 224.294C848.1 224.191 848.26 224.089 848.42 223.989L848.38 224.029ZM320.45 356.877C319.007 356.721 317.563 356.566 316.12 356.409V356.389C315.61 356.359 315.11 356.339 314.6 356.319C314.17 356.322 313.74 356.329 313.309 356.336C312.335 356.351 311.357 356.367 310.38 356.339C295.6 355.939 280.92 356.719 266.33 359.289C244.27 363.179 223.5 370.549 204.06 381.649C201.955 382.849 199.885 384.11 197.815 385.371C197.366 385.644 196.918 385.917 196.47 386.189C195.235 386.939 194.017 387.719 192.8 388.499C191.582 389.279 190.365 390.059 189.13 390.809C177.969 397.623 166.761 404.366 155.554 411.107C154.129 411.965 152.704 412.822 151.28 413.679C150.619 414.077 149.927 414.42 149.234 414.763C148.898 414.93 148.562 415.096 148.23 415.269C148.12 415.499 147.93 415.639 147.68 415.679L145.94 416.699C145.825 416.789 145.712 416.881 145.6 416.974C145.487 417.066 145.375 417.159 145.26 417.249C144.21 417.839 143.15 418.429 142.09 419.019C141.871 419.198 141.652 419.367 141.433 419.536L141.43 419.539C140.899 419.839 140.367 420.139 139.834 420.44C139.302 420.739 138.77 421.039 138.24 421.339L137.59 421.849C137.31 422.019 137.033 422.189 136.756 422.359C136.478 422.529 136.2 422.699 135.92 422.869C135.201 423.358 134.492 423.847 133.783 424.337L133.78 424.339C133.78 424.531 133.774 424.724 133.769 424.917C133.757 425.367 133.744 425.818 133.8 426.259C134.09 428.417 134.369 430.576 134.647 432.736C135.335 438.081 136.024 443.425 136.9 448.739C140.34 469.519 145.47 489.889 152.3 509.809C157.83 525.959 164.4 541.679 172.06 556.939C172.191 557.198 172.31 557.467 172.43 557.738C172.87 558.733 173.321 559.752 174.39 560.389C174.681 560.284 174.97 560.182 175.256 560.08C175.953 559.833 176.637 559.591 177.31 559.329C196.25 552.039 215.69 546.449 235.46 541.959C263.77 535.529 292.45 531.539 321.35 529.089C333.49 528.059 345.66 527.279 357.83 526.839C373.34 526.279 388.86 525.789 404.39 526.249C406.491 526.312 408.591 526.374 410.691 526.436C421.288 526.749 431.879 527.062 442.47 527.479C446.661 527.643 450.852 528.002 455.043 528.36C456.222 528.461 457.401 528.562 458.58 528.659C462.3 528.969 466.01 529.129 469.72 528.629C470.443 528.531 471.166 528.435 471.89 528.338C475.991 527.789 480.1 527.239 484.18 526.559C492.29 525.209 500.25 523.249 507.95 520.349C513.12 518.409 518.09 516.029 522.54 512.689C525.22 510.669 527.62 508.369 529.39 505.479C531.96 501.269 533.11 496.739 531.94 491.859C531.34 489.379 530.59 486.909 529.63 484.549C527.2 478.569 523.65 473.229 519.8 468.079C512.47 458.279 503.95 449.559 494.93 441.349C471.11 419.669 445 401.169 416.96 385.369C407.11 379.819 396.85 375.159 386.22 371.319C367.71 364.629 348.7 359.989 329.11 357.819C326.223 357.499 323.337 357.188 320.45 356.877Z" fill="#51267D"/>
</svg>
